<svg xmlns="http://www.w3.org/2000/svg" viewBox="0 0 64 64">
  <defs>
    <linearGradient id="pinpalGradient" x1="0" y1="0" x2="1" y2="1">
      <stop offset="0%" stop-color="#1b4332" />
      <stop offset="100%" stop-color="#6b8f71" />
    </linearGradient>
  </defs>
  <rect width="64" height="64" rx="16" fill="#d6dac8" />
  <path d="M32 10c-9.39 0-17 7.39-17 16.5 0 12.45 14.37 26.79 16.03 28.41a1.4 1.4 0 0 0 1.94 0C34.63 53.29 49 38.95 49 26.5 49 17.39 41.39 10 32 10Z" fill="url(#pinpalGradient)"/>
  <circle cx="32" cy="26" r="8.5" fill="#d6dac8" />
  <path d="M27 26c1.8-3.2 7.2-4.8 10.2-1.7-2.5-.7-3.9.5-4.4 1.5 2.5 0 4.7 1.3 5.8 3.3-2.5.9-6.2 1-8.8-.8-1-.7-2.1-1.5-2.8-2.3Z" fill="#1b4332" opacity="0.9"/>
</svg>
