<svg xmlns="http://www.w3.org/2000/svg" viewBox="0 0 256 256" role="img" aria-label="Russian Oligarch avatar">
  <rect width="256" height="256" rx="32" fill="#dde3ea"/>
  <rect x="18" y="18" width="220" height="220" rx="26" fill="#1e2531"/>
  <ellipse cx="128" cy="220" rx="74" ry="30" fill="#202833"/>
  <path d="M69 213c16-31 40-49 59-49s43 18 59 49" fill="#2d3745"/>
  <ellipse cx="128" cy="118" rx="39" ry="47" fill="#e9c6ae"/>
  <path d="M91 113c0-40 16-64 37-64 26 0 41 19 44 60-11-9-24-14-40-14-16 0-29 4-41 18z" fill="#545759"/>
  <path d="M89 119c2-30 18-58 39-58 19 0 34 14 43 45-17-7-34-11-53-8-9 1-19 6-29 21z" fill="#3f4347"/>
  <path d="M101 143c8 8 17 12 27 12 11 0 20-4 28-12v12c-8 10-17 14-28 14-12 0-20-4-27-14z" fill="#dbb49d"/>
  <ellipse cx="112" cy="120" rx="4" ry="4.8" fill="#2e2b2d"/>
  <ellipse cx="144" cy="120" rx="4" ry="4.8" fill="#2e2b2d"/>
  <path d="M106 109c5-3 11-4 16-1" stroke="#6d5752" stroke-width="3" fill="none" stroke-linecap="round"/>
  <path d="M138 108c6-3 11-3 16 0" stroke="#6d5752" stroke-width="3" fill="none" stroke-linecap="round"/>
  <path d="M124 130c2 4 6 4 9 0" stroke="#ae7a6c" stroke-width="3" fill="none" stroke-linecap="round"/>
  <path d="M111 145c12 4 23 4 34 0" stroke="#754749" stroke-width="4" fill="none" stroke-linecap="round"/>
  <path d="M87 113c5-24 16-42 30-54 12-11 25-16 40-16 13 0 24 3 33 10-22 0-38 5-49 17-21 1-37 18-54 43z" fill="#56595c"/>
  <path d="M99 175c8 7 18 10 29 10 12 0 22-3 29-10v40H99z" fill="#11161e"/>
  <path d="M100 170h56l12 18h-80z" fill="#f3f3f4"/>
  <path d="M125 170h6v18h-6z" fill="#a73f45"/>
  <path d="M123 188h10l5 26h-20z" fill="#a73f45"/>
  <path d="M75 216c10-11 30-20 53-20s43 9 53 20" stroke="#69717e" stroke-width="3" fill="none" opacity=".4"/>
</svg>
