<svg xmlns="http://www.w3.org/2000/svg" viewBox="0 0 256 256" role="img" aria-label="Upper East Side Widow avatar">
  <rect width="256" height="256" rx="32" fill="#f3efe7"/>
  <rect x="18" y="18" width="220" height="220" rx="26" fill="#e6ddd0"/>
  <ellipse cx="128" cy="216" rx="66" ry="34" fill="#1f2430"/>
  <path d="M70 210c14-34 40-54 58-54s44 20 58 54" fill="#263142"/>
  <path d="M85 103c0-35 21-57 43-57 23 0 43 22 43 57v22H85z" fill="#c6c9d1"/>
  <path d="M88 102c3-40 24-63 40-63 18 0 38 23 40 63-10-13-20-17-29-18-8 8-27 15-51 18z" fill="#d8dce3"/>
  <ellipse cx="128" cy="117" rx="38" ry="46" fill="#f1d7c3"/>
  <path d="M96 97c8-19 26-31 47-32 12 12 20 27 22 44-15-8-35-14-69-12z" fill="#c9ccd3"/>
  <path d="M96 95c4-29 26-49 52-49 10 0 20 4 28 11-2 17-8 31-20 42-13-9-37-11-60-4z" fill="#bcc0c8"/>
  <path d="M100 140c10 11 21 16 28 16 8 0 18-5 28-16v12c-6 10-16 18-28 18s-22-8-28-18z" fill="#e7c6b0"/>
  <ellipse cx="113" cy="117" rx="4" ry="5" fill="#4f4039"/>
  <ellipse cx="143" cy="117" rx="4" ry="5" fill="#4f4039"/>
  <path d="M110 107c5-3 10-3 16 0" stroke="#7c6558" stroke-width="3" fill="none" stroke-linecap="round"/>
  <path d="M136 107c5-3 10-3 16 0" stroke="#7c6558" stroke-width="3" fill="none" stroke-linecap="round"/>
  <path d="M123 129c3 4 7 4 10 0" stroke="#b88477" stroke-width="3" fill="none" stroke-linecap="round"/>
  <path d="M112 144c11 8 22 8 33 0" stroke="#9e5c60" stroke-width="4" fill="none" stroke-linecap="round"/>
  <path d="M86 98c8-43 32-67 62-67 18 0 34 9 44 24-12-4-27-5-40-2-18-12-44-3-66 45z" fill="#d4d6db"/>
  <circle cx="92" cy="136" r="8" fill="#ead1c2" opacity=".8"/>
  <circle cx="164" cy="136" r="8" fill="#ead1c2" opacity=".8"/>
  <path d="M112 170h32l10 26h-52z" fill="#f7f4ef"/>
  <path d="M98 178c8 7 19 11 30 11 12 0 23-4 30-11v36H98z" fill="#202635"/>
  <circle cx="102" cy="179" r="3" fill="#f7f4ef"/>
  <circle cx="154" cy="179" r="3" fill="#f7f4ef"/>
  <path d="M78 213c10-16 28-28 50-28s40 12 50 28" stroke="#49505c" stroke-width="3" fill="none" opacity=".45"/>
</svg>
